<svg xmlns="http://www.w3.org/2000/svg" xmlns:xlink="http://www.w3.org/1999/xlink" width="92" zoomAndPan="magnify" viewBox="0 0 69 32.249999" height="43" preserveAspectRatio="xMidYMid meet" version="1.0"><defs><filter x="0%" y="0%" width="100%" height="100%" id="353ecedb1b"><feColorMatrix values="0 0 0 0 1 0 0 0 0 1 0 0 0 0 1 0 0 0 1 0" color-interpolation-filters="sRGB"/></filter><g/><clipPath id="cbebf45ca7"><path d="M 0.785156 0 L 68.214844 0 L 68.214844 31.515625 L 0.785156 31.515625 Z M 0.785156 0 " clip-rule="nonzero"/></clipPath><mask id="f391cb3507"><g filter="url(#353ecedb1b)"><rect x="-6.9" width="82.8" fill="#000000" y="-3.225" height="38.699999" fill-opacity="0.79"/></g></mask><clipPath id="da412d903b"><path d="M 2.074219 4.132812 L 68.214844 4.132812 L 68.214844 29.589844 L 2.074219 29.589844 Z M 2.074219 4.132812 " clip-rule="nonzero"/></clipPath><clipPath id="6172f7280a"><path d="M 3.539062 4.132812 L 66.75 4.132812 C 67.140625 4.132812 67.511719 4.289062 67.785156 4.5625 C 68.0625 4.835938 68.214844 5.210938 68.214844 5.597656 L 68.214844 28.125 C 68.214844 28.511719 68.0625 28.886719 67.785156 29.160156 C 67.511719 29.4375 67.140625 29.589844 66.75 29.589844 L 3.539062 29.589844 C 3.148438 29.589844 2.777344 29.4375 2.503906 29.160156 C 2.226562 28.886719 2.074219 28.511719 2.074219 28.125 L 2.074219 5.597656 C 2.074219 5.210938 2.226562 4.835938 2.503906 4.5625 C 2.777344 4.289062 3.148438 4.132812 3.539062 4.132812 Z M 3.539062 4.132812 " clip-rule="nonzero"/></clipPath><clipPath id="5816476178"><path d="M 2.074219 4.132812 L 68.039062 4.132812 L 68.039062 29.648438 L 2.074219 29.648438 Z M 2.074219 4.132812 " clip-rule="nonzero"/></clipPath><clipPath id="4ef49fca02"><path d="M 3.546875 4.132812 L 66.734375 4.132812 C 67.125 4.132812 67.496094 4.289062 67.773438 4.5625 C 68.046875 4.835938 68.199219 5.210938 68.199219 5.597656 L 68.199219 28.117188 C 68.199219 28.503906 68.046875 28.875 67.773438 29.152344 C 67.496094 29.425781 67.125 29.582031 66.734375 29.582031 L 3.546875 29.582031 C 3.160156 29.582031 2.785156 29.425781 2.511719 29.152344 C 2.238281 28.875 2.082031 28.503906 2.082031 28.117188 L 2.082031 5.597656 C 2.082031 5.210938 2.238281 4.835938 2.511719 4.5625 C 2.785156 4.289062 3.160156 4.132812 3.546875 4.132812 Z M 3.546875 4.132812 " clip-rule="nonzero"/></clipPath><clipPath id="a1f8f53025"><rect x="0" width="69" y="0" height="32"/></clipPath><clipPath id="4a16b1f141"><path d="M 0.785156 1.925781 L 67 1.925781 L 67 27.382812 L 0.785156 27.382812 Z M 0.785156 1.925781 " clip-rule="nonzero"/></clipPath><clipPath id="0149a2e014"><path d="M 2.25 1.925781 L 65.460938 1.925781 C 65.851562 1.925781 66.222656 2.082031 66.496094 2.355469 C 66.773438 2.632812 66.925781 3.003906 66.925781 3.394531 L 66.925781 25.917969 C 66.925781 26.304688 66.773438 26.679688 66.496094 26.953125 C 66.222656 27.230469 65.851562 27.382812 65.460938 27.382812 L 2.25 27.382812 C 1.859375 27.382812 1.488281 27.230469 1.214844 26.953125 C 0.9375 26.679688 0.785156 26.304688 0.785156 25.917969 L 0.785156 3.394531 C 0.785156 3.003906 0.9375 2.632812 1.214844 2.355469 C 1.488281 2.082031 1.859375 1.925781 2.25 1.925781 Z M 2.25 1.925781 " clip-rule="nonzero"/></clipPath><clipPath id="bf1bee88e2"><path d="M 0.785156 1.925781 L 66.75 1.925781 L 66.75 27.441406 L 0.785156 27.441406 Z M 0.785156 1.925781 " clip-rule="nonzero"/></clipPath><clipPath id="f113963d97"><path d="M 2.257812 1.925781 L 65.445312 1.925781 C 65.835938 1.925781 66.207031 2.082031 66.484375 2.355469 C 66.757812 2.628906 66.910156 3.003906 66.910156 3.390625 L 66.910156 25.910156 C 66.910156 26.296875 66.757812 26.671875 66.484375 26.945312 C 66.207031 27.21875 65.835938 27.375 65.445312 27.375 L 2.257812 27.375 C 1.871094 27.375 1.496094 27.21875 1.222656 26.945312 C 0.949219 26.671875 0.792969 26.296875 0.792969 25.910156 L 0.792969 3.390625 C 0.792969 3.003906 0.949219 2.628906 1.222656 2.355469 C 1.496094 2.082031 1.871094 1.925781 2.257812 1.925781 Z M 2.257812 1.925781 " clip-rule="nonzero"/></clipPath></defs><g clip-path="url(#cbebf45ca7)"><g mask="url(#f391cb3507)"><g transform="matrix(1, 0, 0, 1, 0.000000000000000222, 0)"><g clip-path="url(#a1f8f53025)"><g clip-path="url(#da412d903b)"><g clip-path="url(#6172f7280a)"><path fill="#000000" d="M 2.074219 4.132812 L 68.199219 4.132812 L 68.199219 29.589844 L 2.074219 29.589844 Z M 2.074219 4.132812 " fill-opacity="1" fill-rule="nonzero"/></g></g><g clip-path="url(#5816476178)"><g clip-path="url(#4ef49fca02)"><path stroke-linecap="butt" transform="matrix(0.732954, 0, 0, 0.732954, 2.082996, 4.13345)" fill="none" stroke-linejoin="miter" d="M 1.997231 -0.000869859 L 88.206545 -0.000869859 C 88.739491 -0.000869859 89.245789 0.212308 89.624181 0.585371 C 89.997243 0.958433 90.205092 1.470061 90.205092 1.997677 L 90.205092 32.722003 C 90.205092 33.249619 89.997243 33.755918 89.624181 34.134309 C 89.245789 34.507371 88.739491 34.72055 88.206545 34.72055 L 1.997231 34.72055 C 1.469615 34.72055 0.957987 34.507371 0.584924 34.134309 C 0.211862 33.755918 -0.00131593 33.249619 -0.00131593 32.722003 L -0.00131593 1.997677 C -0.00131593 1.470061 0.211862 0.958433 0.584924 0.585371 C 0.957987 0.212308 1.469615 -0.000869859 1.997231 -0.000869859 Z M 1.997231 -0.000869859 " stroke="#000000" stroke-width="8" stroke-opacity="1" stroke-miterlimit="4"/></g></g></g></g></g></g><g clip-path="url(#4a16b1f141)"><g clip-path="url(#0149a2e014)"><path fill="#212121" d="M 0.785156 1.925781 L 66.910156 1.925781 L 66.910156 27.382812 L 0.785156 27.382812 Z M 0.785156 1.925781 " fill-opacity="1" fill-rule="nonzero"/></g></g><g clip-path="url(#bf1bee88e2)"><g clip-path="url(#f113963d97)"><path stroke-linecap="butt" transform="matrix(0.732954, 0, 0, 0.732954, 0.793897, 1.926848)" fill="none" stroke-linejoin="miter" d="M 1.997281 -0.0014555 L 88.206595 -0.0014555 C 88.739541 -0.0014555 89.245839 0.211723 89.624231 0.584785 C 89.997293 0.957847 90.205142 1.469475 90.205142 1.997091 L 90.205142 32.721417 C 90.205142 33.249034 89.997293 33.760662 89.624231 34.133724 C 89.245839 34.506786 88.739541 34.719964 88.206595 34.719964 L 1.997281 34.719964 C 1.469664 34.719964 0.958036 34.506786 0.584974 34.133724 C 0.211912 33.760662 -0.00126613 33.249034 -0.00126613 32.721417 L -0.00126613 1.997091 C -0.00126613 1.469475 0.211912 0.957847 0.584974 0.584785 C 0.958036 0.211723 1.469664 -0.0014555 1.997281 -0.0014555 Z M 1.997281 -0.0014555 " stroke="#dbdada" stroke-width="8" stroke-opacity="1" stroke-miterlimit="4"/></g></g><g fill="#ffffff" fill-opacity="1"><g transform="translate(6.732125, 21.288089)"><g><path d="M 3.671875 0.203125 C 2.742188 0.203125 2.019531 -0.078125 1.5 -0.640625 C 0.976562 -1.203125 0.71875 -2.070312 0.71875 -3.25 L 0.71875 -11 C 0.71875 -12.175781 0.976562 -13.046875 1.5 -13.609375 C 2.019531 -14.171875 2.742188 -14.453125 3.671875 -14.453125 C 4.585938 -14.453125 5.304688 -14.171875 5.828125 -13.609375 C 6.347656 -13.046875 6.609375 -12.175781 6.609375 -11 L 6.609375 -3.25 C 6.609375 -2.070312 6.347656 -1.203125 5.828125 -0.640625 C 5.304688 -0.078125 4.585938 0.203125 3.671875 0.203125 Z M 3.671875 -1.828125 C 3.867188 -1.828125 4.035156 -1.914062 4.171875 -2.09375 C 4.304688 -2.269531 4.375 -2.585938 4.375 -3.046875 L 4.375 -11.203125 C 4.375 -11.660156 4.304688 -11.976562 4.171875 -12.15625 C 4.035156 -12.332031 3.867188 -12.421875 3.671875 -12.421875 C 3.460938 -12.421875 3.289062 -12.332031 3.15625 -12.15625 C 3.019531 -11.976562 2.953125 -11.660156 2.953125 -11.203125 L 2.953125 -3.046875 C 2.953125 -2.585938 3.019531 -2.269531 3.15625 -2.09375 C 3.289062 -1.914062 3.460938 -1.828125 3.671875 -1.828125 Z M 3.671875 -1.828125 "/></g></g></g><g fill="#ffffff" fill-opacity="1"><g transform="translate(14.059395, 21.288089)"><g><path d="M 0.203125 -14.25 L 2.4375 -14.25 L 3.15625 -6.109375 C 3.1875 -5.753906 3.210938 -5.375 3.234375 -4.96875 C 3.265625 -4.570312 3.289062 -4.210938 3.3125 -3.890625 C 3.34375 -3.492188 3.363281 -3.113281 3.375 -2.75 L 3.46875 -2.75 C 3.476562 -3.113281 3.492188 -3.492188 3.515625 -3.890625 C 3.546875 -4.210938 3.570312 -4.570312 3.59375 -4.96875 C 3.625 -5.375 3.660156 -5.753906 3.703125 -6.109375 L 4.484375 -14.25 L 6.71875 -14.25 L 4.890625 0 L 1.828125 0 Z M 0.203125 -14.25 "/></g></g></g><g fill="#ffffff" fill-opacity="1"><g transform="translate(20.979594, 21.288089)"><g><path d="M 0.8125 -14.25 L 5.1875 -14.25 L 5.1875 -12.109375 L 3.046875 -12.109375 L 3.046875 -8.25 L 4.984375 -8.25 L 4.984375 -6.109375 L 3.046875 -6.109375 L 3.046875 -2.140625 L 5.296875 -2.140625 L 5.296875 0 L 0.8125 0 Z M 0.8125 -14.25 "/></g></g></g><g fill="#ffffff" fill-opacity="1"><g transform="translate(26.678583, 21.288089)"><g><path d="M 0.8125 -14.25 L 3.46875 -14.25 C 4.476562 -14.25 5.253906 -13.960938 5.796875 -13.390625 C 6.335938 -12.828125 6.609375 -11.925781 6.609375 -10.6875 L 6.609375 -9.265625 C 6.609375 -8.671875 6.554688 -8.191406 6.453125 -7.828125 C 6.347656 -7.460938 6.234375 -7.175781 6.109375 -6.96875 C 5.960938 -6.71875 5.789062 -6.53125 5.59375 -6.40625 L 6.921875 0 L 4.578125 0 L 3.46875 -5.703125 L 3.046875 -5.703125 L 3.046875 0 L 0.8125 0 Z M 3.46875 -7.734375 C 3.71875 -7.734375 3.929688 -7.84375 4.109375 -8.0625 C 4.285156 -8.28125 4.375 -8.644531 4.375 -9.15625 L 4.375 -10.796875 C 4.375 -11.304688 4.285156 -11.671875 4.109375 -11.890625 C 3.929688 -12.109375 3.71875 -12.21875 3.46875 -12.21875 L 3.046875 -12.21875 L 3.046875 -7.734375 Z M 3.46875 -7.734375 "/></g></g></g><g fill="#ffffff" fill-opacity="1"><g transform="translate(33.904085, 21.288089)"><g><path d="M 0.203125 -14.25 L 2.4375 -14.25 L 3.15625 -6.109375 C 3.1875 -5.753906 3.210938 -5.375 3.234375 -4.96875 C 3.265625 -4.570312 3.289062 -4.210938 3.3125 -3.890625 C 3.34375 -3.492188 3.363281 -3.113281 3.375 -2.75 L 3.46875 -2.75 C 3.476562 -3.113281 3.492188 -3.492188 3.515625 -3.890625 C 3.546875 -4.210938 3.570312 -4.570312 3.59375 -4.96875 C 3.625 -5.375 3.660156 -5.753906 3.703125 -6.109375 L 4.484375 -14.25 L 6.71875 -14.25 L 4.890625 0 L 1.828125 0 Z M 0.203125 -14.25 "/></g></g></g><g fill="#ffffff" fill-opacity="1"><g transform="translate(40.824284, 21.288089)"><g><path d="M 0.8125 -14.25 L 3.046875 -14.25 L 3.046875 0 L 0.8125 0 Z M 0.8125 -14.25 "/></g></g></g><g fill="#ffffff" fill-opacity="1"><g transform="translate(44.691454, 21.288089)"><g><path d="M 0.8125 -14.25 L 5.1875 -14.25 L 5.1875 -12.109375 L 3.046875 -12.109375 L 3.046875 -8.25 L 4.984375 -8.25 L 4.984375 -6.109375 L 3.046875 -6.109375 L 3.046875 -2.140625 L 5.296875 -2.140625 L 5.296875 0 L 0.8125 0 Z M 0.8125 -14.25 "/></g></g></g><g fill="#ffffff" fill-opacity="1"><g transform="translate(50.39044, 21.288089)"><g><path d="M 0.203125 -14.25 L 2.4375 -14.25 L 3.046875 -6.203125 C 3.078125 -5.816406 3.097656 -5.441406 3.109375 -5.078125 C 3.128906 -4.722656 3.148438 -4.398438 3.171875 -4.109375 C 3.203125 -3.773438 3.222656 -3.457031 3.234375 -3.15625 L 3.296875 -3.15625 L 4.171875 -14.25 L 6.40625 -14.25 L 7.171875 -3.15625 L 7.234375 -3.15625 C 7.242188 -3.46875 7.257812 -3.785156 7.28125 -4.109375 C 7.3125 -4.378906 7.335938 -4.675781 7.359375 -5 C 7.378906 -5.320312 7.40625 -5.625 7.4375 -5.90625 L 8.140625 -14.25 L 10.390625 -14.25 L 8.65625 0 L 5.90625 0 L 5.5 -6.515625 C 5.46875 -6.835938 5.441406 -7.207031 5.421875 -7.625 C 5.398438 -8.039062 5.378906 -8.429688 5.359375 -8.796875 C 5.328125 -9.234375 5.304688 -9.660156 5.296875 -10.078125 L 5.234375 -10.078125 C 5.203125 -9.660156 5.175781 -9.234375 5.15625 -8.796875 C 5.125 -8.429688 5.09375 -8.039062 5.0625 -7.625 C 5.039062 -7.207031 5.015625 -6.835938 4.984375 -6.515625 L 4.484375 0 L 1.625 0 Z M 0.203125 -14.25 "/></g></g></g></svg>